<?xml version="1.0" encoding="UTF-8"?>
<svg width="115px" height="124px" viewBox="0 0 115 124" version="1.1" xmlns="http://www.w3.org/2000/svg" xmlns:xlink="http://www.w3.org/1999/xlink">
    <!-- Generator: Sketch 54.1 (76490) - https://sketchapp.com -->
    <title>Group 3</title>
    <desc>Created with Sketch.</desc>
    <g id="Page-1" stroke="none" stroke-width="1" fill="none" fill-rule="evenodd">
        <g id="Artboard" transform="translate(-18.000000, -13.000000)">
            <g id="Group-3" transform="translate(18.000000, 13.000000)">
                <g id="Group" fill-rule="nonzero">
                    <path d="M51.5137666,7.49763632 C19.2777363,10.425517 2.3798172,34.4341391 3.15972116,48.1951785 C4.1995931,62.249006 20.8375442,90.063873 56.4531584,85.0864757 C91.5488366,79.8162904 96.7481963,46.7312381 95.4483564,31.2134703 C94.4084844,16.8668547 83.489829,4.27696751 51.5137666,7.49763632 Z M51.2537987,3.98417944 C84.009765,0.470722558 97.2681323,13.9389739 98.5679722,30.9206822 C99.8678121,47.0240262 94.4084844,83.0369592 56.7131264,88.3071445 C19.5377043,93.8701179 1.07997727,64.5913106 0.0401053193,48.4879666 C-0.999766627,32.0918345 18.2378644,7.20484824 51.2537987,3.98417944 L51.2537987,3.98417944 Z" id="Shape" fill="#7477A0"></path>
                    <path d="M56.1621408,5.07868066 C31.724843,7.73200375 20.2861079,22.1778739 14.5667403,41.0459493 C7.80748773,63.156975 37.1842393,82.0250504 65.5211059,81.1406093 C92.298145,79.9613546 116.475471,39.2770672 111.016075,20.7038055 C105.81665,2.13054389 81.8992948,2.13054389 56.1621408,5.07868066 Z M55.9021695,1.54091653 C80.3394673,-1.40722024 107.89642,-2.29166127 114.13573,19.5245508 C120.115069,40.7511356 94.1179437,83.4991188 65.5211059,84.3835598 C38.2241243,85.5628145 3.38797643,66.6947392 11.7070565,39.8666946 C17.6863953,20.1141782 30.1650155,4.4890533 55.9021695,1.54091653 L55.9021695,1.54091653 Z" id="Shape" fill="#F9AB0C"></path>
                    <path d="M42.9280508,15.2123045 C-11.6783862,47.1171716 16.4049242,98.224042 73.0916064,76.9541306 C105.595438,64.8420977 107.935714,35.3005541 102.995131,21.7114441 C98.5746103,9.00858031 66.5908401,1.62319441 42.9280508,15.2123045 Z M41.6278975,12.2581501 C65.2906869,-1.62637538 100.134794,4.57734877 105.855469,20.5297823 C111.316112,35.891385 108.455775,67.5008366 74.131729,80.4991158 C13.5445871,102.950689 -16.3589379,45.6400944 41.6278975,12.2581501 L41.6278975,12.2581501 Z" id="Shape" fill="#9FAA4D"></path>
                    <path d="M56.4250083,11.5761135 C3.29611241,23.6906507 18.0685371,89.5819138 67.5691181,79.8311887 C81.3048815,77.1719001 94.0039834,58.5568796 90.3756686,34.6232818 C86.7473537,11.280637 71.974929,8.0303953 56.4250083,11.5761135 Z M55.9066776,8.0303953 C71.974929,4.4846771 89.3390072,7.73491878 93.4856527,34.0323287 C97.1139676,59.7387856 83.8965349,80.1266653 68.0874488,83.3769069 C14.4402223,94.0140615 -1.36886381,21.3268385 55.9066776,8.0303953 L55.9066776,8.0303953 Z" id="Shape" fill="#212D54"></path>
                </g>
                <g id="Group-2" transform="translate(3.000000, 100.000000)" fill="#353535">
                    <path d="M4.90905717,16.988417 C4.90905717,17.971218 4.187137,18.8136188 3.03206473,18.8136188 L2.02137648,18.8136188 L2.02137648,15.3036153 L2.88768069,15.3036153 C4.47590507,15.3036153 4.90905717,16.1460161 4.90905717,16.988417 Z M7.21920173,23.7276237 C5.63097735,21.3408213 4.47590507,19.5156195 4.187137,19.3752194 C5.19782524,19.0944191 6.06412945,18.2520183 6.06412945,16.8480168 C6.06412945,15.4440154 5.19782524,14.3208143 2.88768069,14.3208143 L1.01068824,14.3208143 L1.01068824,23.7276237 L2.02137648,23.7276237 L2.02137648,19.6560197 L3.03206473,19.6560197 C3.46521683,19.7964198 4.33152104,21.3408213 5.91974542,23.7276237 L7.21920173,23.7276237 L7.21920173,23.7276237 Z M11.9838749,19.6560197 L8.80742611,19.6560197 C8.80742611,18.5328185 9.38496225,17.6904177 10.3956505,17.6904177 C11.5507228,17.6904177 11.9838749,18.6732187 11.9838749,19.6560197 Z M13.1389471,20.4984205 L13.1389471,20.2176202 C13.1389471,18.2520183 12.2726429,16.8480168 10.3956505,16.8480168 C8.80742611,16.8480168 7.65235383,18.2520183 7.65235383,20.2176202 C7.65235383,22.1832222 8.66304207,23.8680239 10.8288026,23.8680239 C11.6951068,23.8680239 12.561411,23.5872236 12.9945631,23.1660232 L12.705795,22.4640225 C12.2726429,22.7448227 11.6951068,22.8852229 11.1175707,22.8852229 C9.52934628,22.8852229 8.80742611,21.7620218 8.80742611,20.4984205 L13.1389471,20.4984205 L13.1389471,20.4984205 Z" id="Shape"></path>
                    <path d="M18.7699245,21.9024219 C18.7699245,19.6560197 15.5934757,20.0772201 15.5934757,18.5328185 C15.5934757,17.971218 16.1710119,17.6904177 16.748548,17.6904177 C17.4704682,17.6904177 18.0480043,17.8308178 18.4811564,18.1116181 L18.4811564,17.1288171 L16.748548,16.8480168 C15.1603236,16.8480168 14.4384035,17.6904177 14.4384035,18.5328185 C14.4384035,20.9196209 17.6148522,20.3580204 17.6148522,22.042822 C17.6148522,22.6044226 17.0373161,23.025623 16.1710119,23.025623 C15.4490917,23.025623 14.7271715,22.7448227 14.4384035,22.4640225 L14.0052514,23.3064233 C14.5827875,23.5872236 15.1603236,23.8680239 16.1710119,23.8680239 C17.4704682,23.8680239 18.7699245,23.3064233 18.7699245,21.9024219" id="Path" fill-rule="nonzero"></path>
                    <path d="M24.2565178,19.6560197 L20.935685,19.6560197 C20.935685,18.5328185 21.6576052,17.6904177 22.6682934,17.6904177 C23.6789817,17.6904177 24.2565178,18.6732187 24.2565178,19.6560197 Z M25.4115901,20.4984205 L25.4115901,20.2176202 C25.4115901,18.2520183 24.4009018,16.8480168 22.6682934,16.8480168 C20.935685,16.8480168 19.7806127,18.2520183 19.7806127,20.2176202 C19.7806127,22.1832222 20.791301,23.8680239 22.9570615,23.8680239 C23.8233657,23.8680239 24.6896699,23.5872236 25.122822,23.1660232 L24.8340539,22.4640225 C24.4009018,22.7448227 23.8233657,22.8852229 23.2458296,22.8852229 C21.6576052,22.8852229 20.935685,21.7620218 20.935685,20.4984205 L25.4115901,20.4984205 L25.4115901,20.4984205 Z M30.7537994,22.1832222 C30.3206473,22.4640225 29.8874952,22.8852229 28.8768069,22.8852229 C28.0105027,22.8852229 27.5773506,22.4640225 27.5773506,21.7620218 C27.5773506,20.9196209 28.1548867,20.4984205 29.309959,20.4984205 L30.7537994,20.4984205 L30.7537994,22.1832222 Z M31.9088716,23.7276237 L31.7644876,21.2004212 L31.7644876,19.0944191 C31.7644876,17.4096174 30.7537994,16.8480168 29.454343,16.8480168 C28.5880388,16.8480168 27.8661187,16.988417 26.9998145,17.5500176 L27.4329666,18.3924184 C27.7217346,18.1116181 28.2992708,17.6904177 29.165575,17.6904177 C30.0318792,17.6904177 30.7537994,18.1116181 30.7537994,19.2348192 L30.7537994,19.5156195 L29.309959,19.6560197 C27.4329666,19.6560197 26.5666624,20.4984205 26.5666624,21.7620218 C26.5666624,23.025623 27.5773506,23.8680239 28.5880388,23.8680239 C29.7431111,23.8680239 30.3206473,23.4468234 30.7537994,23.025623 L31.0425674,23.7276237 L31.9088716,23.7276237 L31.9088716,23.7276237 Z" id="Shape"></path>
                    <path d="M37.2510809,16.988417 L36.5291607,16.8480168 C36.0960086,16.8480168 35.5184725,16.8480168 34.6521683,17.6904177 L34.5077843,16.988417 L33.64148,16.988417 L33.64148,23.7276237 L34.6521683,23.7276237 L34.6521683,18.6732187 C35.0853204,18.2520183 35.8072406,17.971218 36.2403927,17.971218 L36.8179288,17.971218 L37.2510809,16.988417" id="Path" fill-rule="nonzero"></path>
                    <path d="M42.8820583,23.1660232 L42.5932902,22.4640225 C42.1601381,22.7448227 41.5826019,22.8852229 40.8606818,22.8852229 C39.4168414,22.8852229 38.5505372,21.9024219 38.5505372,20.3580204 C38.5505372,18.8136188 39.4168414,17.6904177 40.8606818,17.6904177 C41.5826019,17.6904177 42.3045221,17.971218 42.7376742,18.2520183 L42.7376742,17.2692173 C42.1601381,16.988417 41.5826019,16.8480168 40.8606818,16.8480168 C38.6949213,16.8480168 37.539849,18.5328185 37.539849,20.3580204 C37.539849,22.1832222 38.5505372,23.8680239 40.7162977,23.8680239 C41.5826019,23.8680239 42.4489062,23.4468234 42.8820583,23.1660232" id="Path"></path>
                    <path d="M49.6681079,23.7276237 L49.6681079,19.2348192 C49.6681079,17.4096174 48.6574196,16.8480168 47.6467314,16.8480168 C46.6360432,16.8480168 46.058507,17.2692173 45.1922028,17.8308178 L45.1922028,13.6188136 L44.1815146,13.6188136 L44.1815146,23.7276237 L45.1922028,23.7276237 L45.1922028,18.8136188 C45.769739,18.3924184 46.4916591,17.8308178 47.3579633,17.8308178 C48.3686516,17.8308178 48.5130356,18.6732187 48.5130356,19.5156195 L48.5130356,23.7276237 L49.6681079,23.7276237 M62.2295189,23.1660232 L61.9407508,22.3236223 C61.2188306,22.6044226 60.4969105,22.8852229 59.6306063,22.8852229 C57.3204617,22.8852229 56.0210054,21.3408213 56.0210054,19.0944191 C56.0210054,16.8480168 57.4648457,15.1632152 59.6306063,15.1632152 C60.7856785,15.1632152 61.3632147,15.4440154 62.0851349,16.005616 L62.0851349,14.8824149 C61.6519828,14.6016146 60.7856785,14.3208143 59.6306063,14.3208143 C56.8873096,14.3208143 54.8659331,16.4268164 54.8659331,19.0944191 C54.8659331,21.9024219 56.5985415,23.8680239 59.4862222,23.8680239 C60.3525264,23.8680239 61.3632147,23.5872236 62.2295189,23.1660232" id="Shape" fill-rule="nonzero"></path>
                    <path d="M68.0048803,20.3580204 C68.0048803,21.9024219 67.1385761,22.8852229 65.8391198,22.8852229 C64.5396634,22.8852229 63.8177433,21.9024219 63.8177433,20.3580204 C63.8177433,18.6732187 64.5396634,17.6904177 65.8391198,17.6904177 C67.1385761,17.6904177 68.0048803,18.6732187 68.0048803,20.3580204 Z M69.0155685,20.3580204 C69.0155685,19.2348192 68.7268004,18.2520183 68.0048803,17.6904177 C67.4273441,17.1288171 66.705424,16.8480168 65.8391198,16.8480168 C64.9728155,16.8480168 64.2508954,17.1288171 63.6733592,17.6904177 C63.0958231,18.2520183 62.807055,19.2348192 62.807055,20.3580204 C62.807055,21.4812215 63.0958231,22.4640225 63.6733592,23.025623 C64.2508954,23.5872236 64.9728155,23.8680239 65.8391198,23.8680239 C66.705424,23.8680239 67.4273441,23.5872236 68.0048803,23.025623 C68.7268004,22.3236223 69.0155685,21.4812215 69.0155685,20.3580204 L69.0155685,20.3580204 Z" id="Shape"></path>
                    <path d="M75.9460022,23.7276237 L75.8016181,20.9196209 L75.8016181,16.988417 L74.7909299,16.988417 L74.7909299,22.042822 C74.5021618,22.4640225 73.7802417,22.8852229 72.9139374,22.8852229 C72.0476332,22.8852229 71.6144811,22.4640225 71.6144811,21.3408213 L71.6144811,16.988417 L70.6037929,16.988417 L70.6037929,21.4812215 C70.6037929,23.3064233 71.7588652,23.8680239 72.6251694,23.8680239 C73.4914736,23.8680239 74.3577778,23.4468234 74.9353139,23.025623 L75.224082,23.7276237 L75.9460022,23.7276237 M83.3095879,23.7276237 L83.3095879,19.2348192 C83.3095879,17.5500176 82.4432837,16.8480168 81.4325955,16.8480168 C80.4219072,16.8480168 79.6999871,17.2692173 78.9780669,17.8308178 L78.8336829,16.988417 L77.9673787,16.988417 L77.9673787,23.7276237 L78.9780669,23.7276237 L78.9780669,18.8136188 C79.555603,18.3924184 80.2775232,17.8308178 81.1438274,17.8308178 C82.1545157,17.8308178 82.2988997,18.6732187 82.2988997,19.5156195 L82.2988997,23.7276237 L83.3095879,23.7276237" id="Shape" fill-rule="nonzero"></path>
                    <path d="M90.2400216,23.1660232 L89.9512535,22.4640225 C89.5181014,22.7448227 88.9405653,22.8852229 88.2186451,22.8852229 C86.7748048,22.8852229 85.9085006,21.9024219 85.9085006,20.3580204 C85.9085006,18.8136188 86.7748048,17.6904177 88.2186451,17.6904177 C89.0849493,17.6904177 89.6624855,17.971218 90.0956376,18.2520183 L90.0956376,17.2692173 C89.6624855,16.988417 88.9405653,16.8480168 88.3630291,16.8480168 C86.0528846,16.8480168 84.8978123,18.5328185 84.8978123,20.3580204 C84.8978123,22.1832222 86.0528846,23.8680239 88.0742611,23.8680239 C88.9405653,23.8680239 89.8068695,23.4468234 90.2400216,23.1660232 L90.2400216,23.1660232 Z M92.6945502,23.7276237 L92.6945502,16.988417 L91.5394779,16.988417 L91.5394779,23.7276237 L92.6945502,23.7276237 Z M92.8389342,14.8824149 C92.8389342,14.4612145 92.5501661,14.1804142 92.117014,14.1804142 C91.6838619,14.1804142 91.3950939,14.4612145 91.3950939,14.8824149 C91.3950939,15.3036153 91.6838619,15.5844156 92.117014,15.5844156 C92.5501661,15.5844156 92.8389342,15.3036153 92.8389342,14.8824149 L92.8389342,14.8824149 Z" id="Shape"></path>
                    <path d="M96.8816872,23.5872236 L96.7373031,22.8852229 L96.4485351,22.8852229 C96.015383,22.8852229 95.8709989,22.7448227 95.8709989,22.1832222 L95.8709989,13.6188136 L94.7159267,13.6188136 L94.7159267,22.6044226 C94.7159267,23.3064233 95.1490788,23.8680239 96.015383,23.8680239 L96.8816872,23.5872236" id="Path" fill-rule="nonzero"></path>
                    <path d="M5.48659331,6.03720604 L2.31014455,6.03720604 L3.60960086,2.94840295 L3.89836893,1.82520183 L4.33152104,2.94840295 L5.48659331,6.03720604 Z M7.9411219,9.54720955 L4.187137,0.14040014 L3.60960086,0.14040014 L-4.97379915e-14,9.54720955 L1.01068824,9.54720955 L2.02137648,7.02000702 L5.77536138,7.02000702 L6.78604962,9.54720955 L7.9411219,9.54720955 L7.9411219,9.54720955 Z" id="Shape"></path>
                    <path d="M12.8501791,2.80800281 L12.1282589,2.66760267 C11.5507228,2.66760267 11.1175707,2.66760267 10.1068824,3.51000351 L9.96249838,2.80800281 L9.09619418,2.80800281 L9.09619418,9.54720955 L10.2512665,9.54720955 L10.2512665,4.49280449 C10.6844186,4.07160407 11.2619547,3.79080379 11.6951068,3.79080379 L12.417027,3.79080379 L12.8501791,2.80800281 M17.6148522,8.98560899 L17.3260841,8.28360828 C17.0373161,8.42400842 16.604164,8.7048087 16.1710119,8.7048087 C15.5934757,8.7048087 15.4490917,8.42400842 15.4490917,7.86240786 L15.4490917,3.65040365 L17.1817001,3.65040365 L17.6148522,2.80800281 L15.4490917,2.80800281 L15.4490917,0.982800983 L14.4384035,1.26360126 L14.4384035,2.80800281 L13.2833312,2.80800281 L13.2833312,3.65040365 L14.4384035,3.65040365 L14.4384035,8.28360828 C14.4384035,9.12600913 14.8715556,9.68760969 15.8822438,9.68760969 C16.4597799,9.68760969 17.1817001,9.40680941 17.6148522,8.98560899 M22.8126775,7.72200772 C22.8126775,5.47560548 19.6362287,5.8968059 19.6362287,4.35240435 C19.6362287,3.79080379 20.2137648,3.51000351 20.935685,3.51000351 C21.6576052,3.51000351 22.2351413,3.65040365 22.6682934,3.93120393 L22.6682934,2.94840295 L20.935685,2.66760267 C19.3474606,2.66760267 18.6255405,3.51000351 18.6255405,4.35240435 C18.6255405,6.73920674 21.8019892,6.17760618 21.8019892,7.86240786 C21.8019892,8.42400842 21.2244531,8.84520885 20.3581489,8.84520885 C19.4918447,8.84520885 18.9143085,8.56440856 18.6255405,8.28360828 L18.1923884,9.12600913 C18.6255405,9.40680941 19.2030766,9.68760969 20.2137648,9.68760969 C21.6576052,9.68760969 22.8126775,9.12600913 22.8126775,7.72200772" id="Shape" fill-rule="nonzero"></path>
                    <path d="M33.352712,7.86240786 C32.6307918,8.42400842 31.6201036,8.7048087 30.8981834,8.7048087 C29.7431111,8.7048087 29.0211909,8.002808 29.0211909,7.02000702 C29.0211909,6.17760618 29.309959,5.47560548 30.6094153,5.05440505 L33.352712,7.86240786 Z M32.4864078,2.24640225 C32.4864078,2.80800281 31.9088716,3.51000351 30.8981834,3.93120393 C30.1762632,3.08880309 29.8874952,2.66760267 29.8874952,2.10600211 C29.8874952,1.54440154 30.3206473,0.982800983 31.1869515,0.982800983 C32.1976397,0.982800983 32.4864078,1.68480168 32.4864078,2.24640225 Z M37.1066969,9.40680941 L36.9623128,8.84520885 C36.2403927,8.98560899 35.5184725,8.42400842 34.7965523,7.72200772 C35.8072406,6.73920674 36.3847767,5.75640576 36.5291607,5.19480519 L35.5184725,4.91400491 C35.3740885,5.47560548 34.7965523,6.45840646 34.0746322,7.16040716 L31.4757195,4.63320463 C32.7751758,3.93120393 33.497096,3.22920323 33.497096,2.10600211 C33.497096,0.842400842 32.6307918,4.4408921e-15 31.1869515,4.4408921e-15 C29.7431111,4.4408921e-15 28.8768069,0.982800983 28.8768069,2.10600211 C28.8768069,2.94840295 29.309959,3.51000351 30.0318792,4.35240435 C28.5880388,4.91400491 27.8661187,5.61600562 27.8661187,7.02000702 C27.8661187,8.42400842 28.8768069,9.68760969 30.6094153,9.68760969 C32.0532557,9.68760969 33.2083279,9.12600913 34.0746322,8.42400842 C34.7965523,8.98560899 35.5184725,9.54720955 36.3847767,9.54720955 L37.1066969,9.40680941 L37.1066969,9.40680941 Z" id="Shape"></path>
                    <path d="M49.6681079,9.54720955 L49.6681079,0.14040014 L48.5130356,0.14040014 L48.5130356,4.35240435 L43.3152104,4.35240435 L43.3152104,0.14040014 L42.1601381,0.14040014 L42.1601381,9.54720955 L43.3152104,9.54720955 L43.3152104,5.19480519 L48.5130356,5.19480519 L48.5130356,9.54720955 L49.6681079,9.54720955 M57.0316936,9.54720955 L56.8873096,6.73920674 L56.8873096,2.80800281 L55.7322373,2.80800281 L55.7322373,7.86240786 C55.4434693,8.28360828 54.8659331,8.7048087 53.9996289,8.7048087 C53.1333247,8.7048087 52.5557886,8.28360828 52.5557886,7.16040716 L52.5557886,2.80800281 L51.5451003,2.80800281 L51.5451003,7.3008073 C51.5451003,9.12600913 52.7001726,9.68760969 53.7108609,9.68760969 C54.5771651,9.68760969 55.4434693,9.26640927 55.8766214,8.84520885 L56.1653894,9.54720955 L57.0316936,9.54720955 M68.7268004,9.54720955 L68.7268004,4.77360477 C68.7268004,3.08880309 67.7161122,2.66760267 66.705424,2.66760267 C65.8391198,2.66760267 64.8284315,3.08880309 64.1065113,3.79080379 C63.8177433,3.08880309 63.2402071,2.66760267 62.3739029,2.66760267 C61.6519828,2.66760267 60.9300626,2.94840295 59.9193743,3.65040365 L59.7749903,2.80800281 L58.9086861,2.80800281 L58.9086861,9.54720955 L59.9193743,9.54720955 L59.9193743,4.63320463 C60.4969105,4.07160407 61.2188306,3.51000351 62.0851349,3.51000351 C63.0958231,3.51000351 63.2402071,4.21200421 63.2402071,5.05440505 L63.2402071,9.54720955 L64.3952794,9.54720955 L64.3952794,5.05440505 L64.2508954,4.63320463 C64.8284315,4.07160407 65.5503517,3.51000351 66.5610399,3.51000351 C67.4273441,3.51000351 67.5717282,4.21200421 67.5717282,5.05440505 L67.5717282,9.54720955 L68.7268004,9.54720955" id="Shape" fill-rule="nonzero"></path>
                    <path d="M74.3577778,8.002808 C74.0690097,8.28360828 73.4914736,8.7048087 72.6251694,8.7048087 C71.7588652,8.7048087 71.3257131,8.14320814 71.3257131,7.58160758 C71.3257131,6.73920674 71.7588652,6.31800632 73.0583215,6.31800632 L74.3577778,6.31800632 L74.3577778,8.002808 Z M75.6572341,9.54720955 L75.5128501,6.87960688 L75.5128501,4.91400491 C75.5128501,3.22920323 74.3577778,2.66760267 73.0583215,2.66760267 C72.1920173,2.66760267 71.4700971,2.80800281 70.6037929,3.36960337 L71.036945,4.21200421 C71.4700971,3.93120393 72.0476332,3.51000351 72.9139374,3.51000351 C73.7802417,3.51000351 74.3577778,3.93120393 74.3577778,5.05440505 L74.3577778,5.33520534 L72.9139374,5.47560548 C71.181329,5.47560548 70.1706408,6.31800632 70.1706408,7.58160758 C70.1706408,8.84520885 71.181329,9.68760969 72.3364013,9.68760969 C73.3470895,9.68760969 74.0690097,9.26640927 74.5021618,8.84520885 L74.7909299,9.54720955 L75.6572341,9.54720955 L75.6572341,9.54720955 Z" id="Shape"></path>
                    <path d="M82.7320518,9.54720955 L82.7320518,5.05440505 C82.7320518,3.36960337 81.7213636,2.66760267 80.7106753,2.66760267 C79.8443711,2.66760267 79.1224509,2.94840295 78.2561467,3.65040365 L78.1117627,2.80800281 L77.2454585,2.80800281 L77.2454585,9.54720955 L78.4005308,9.54720955 L78.4005308,4.63320463 C78.8336829,4.21200421 79.6999871,3.65040365 80.5662913,3.65040365 C81.5769795,3.65040365 81.7213636,4.49280449 81.7213636,5.33520534 L81.7213636,9.54720955 L82.7320518,9.54720955" id="Path" fill-rule="nonzero"></path>
                    <path d="M85.9085006,9.54720955 L85.9085006,2.80800281 L84.8978123,2.80800281 L84.8978123,9.54720955 L85.9085006,9.54720955 Z M86.0528846,0.702000702 C86.0528846,0.31429642 85.7296699,-3.28626015e-14 85.3309644,-3.28626015e-14 C84.9322589,-3.28626015e-14 84.6090442,0.31429642 84.6090442,0.702000702 C84.6090442,1.12320112 84.8978123,1.4040014 85.3309644,1.4040014 C85.7641165,1.4040014 86.0528846,1.12320112 86.0528846,0.702000702 L86.0528846,0.702000702 Z" id="Shape"></path>
                    <path d="M91.828246,8.98560899 L91.3950939,8.28360828 C91.1063258,8.42400842 90.6731737,8.7048087 90.2400216,8.7048087 C89.8068695,8.7048087 89.5181014,8.42400842 89.5181014,7.86240786 L89.5181014,3.65040365 L91.2507098,3.65040365 L91.6838619,2.80800281 L89.5181014,2.80800281 L89.5181014,0.982800983 L88.5074132,1.26360126 L88.5074132,2.80800281 L87.3523409,2.80800281 L87.3523409,3.65040365 L88.5074132,3.65040365 L88.5074132,8.28360828 C88.5074132,9.12600913 88.9405653,9.68760969 89.9512535,9.68760969 C90.5287897,9.68760969 91.2507098,9.40680941 91.828246,8.98560899" id="Path" fill-rule="nonzero"></path>
                    <path d="M94.2827746,9.54720955 L94.2827746,2.80800281 L93.1277023,2.80800281 L93.1277023,9.54720955 L94.2827746,9.54720955 Z M94.4271586,0.702000702 C94.4271586,0.280800281 94.1383905,4.4408921e-15 93.7052384,4.4408921e-15 C93.3065329,6.4360981e-15 92.9833182,0.31429642 92.9833182,0.702000702 C92.9833182,1.08970498 93.3065329,1.4040014 93.7052384,1.4040014 C94.1383905,1.4040014 94.4271586,1.12320112 94.4271586,0.702000702 L94.4271586,0.702000702 Z M100.346904,5.47560548 L97.1704552,5.47560548 C97.1704552,4.35240435 97.7479914,3.51000351 98.7586796,3.51000351 C99.9137519,3.51000351 100.346904,4.49280449 100.346904,5.47560548 Z M101.501976,6.31800632 L101.501976,6.03720604 C101.501976,4.07160407 100.491288,2.66760267 98.7586796,2.66760267 C97.1704552,2.66760267 96.015383,4.07160407 96.015383,6.03720604 C96.015383,8.002808 97.0260712,9.68760969 99.1918317,9.68760969 C100.058136,9.68760969 100.92444,9.40680941 101.357592,8.98560899 L101.068824,8.28360828 C100.635672,8.56440856 100.058136,8.7048087 99.3362158,8.7048087 C97.8923754,8.7048087 97.1704552,7.58160758 97.1704552,6.31800632 L101.501976,6.31800632 L101.501976,6.31800632 Z" id="Shape"></path>
                    <path d="M106.98857,7.72200772 C106.98857,5.47560548 103.812121,5.8968059 103.812121,4.35240435 C103.812121,3.79080379 104.389657,3.51000351 105.111577,3.51000351 C105.833497,3.51000351 106.411033,3.65040365 106.844186,3.93120393 L106.844186,2.94840295 L105.111577,2.66760267 C103.523353,2.66760267 102.801433,3.51000351 102.801433,4.35240435 C102.801433,6.73920674 105.977881,6.17760618 105.977881,7.86240786 C105.977881,8.42400842 105.255961,8.84520885 104.534041,8.84520885 C103.667737,8.84520885 103.090201,8.56440856 102.801433,8.28360828 L102.36828,9.12600913 C102.801433,9.40680941 103.378969,9.68760969 104.389657,9.68760969 C105.833497,9.68760969 106.98857,9.12600913 106.98857,7.72200772" id="Path" fill-rule="nonzero"></path>
                </g>
            </g>
        </g>
    </g>
</svg>